<svg xmlns="http://www.w3.org/2000/svg" width="400" height="300" viewBox="0 0 400 300">
  <defs>
    <radialGradient id="shiitake">
      <stop offset="0%" style="stop-color:#fef3c7;stop-opacity:1" />
      <stop offset="100%" style="stop-color:#92400e;stop-opacity:1" />
    </radialGradient>
    <linearGradient id="dried" x1="0%" y1="0%" x2="100%" y2="100%">
      <stop offset="0%" style="stop-color:#78350f;stop-opacity:1" />
      <stop offset="100%" style="stop-color:#451a03;stop-opacity:1" />
    </linearGradient>
  </defs>
  <rect width="400" height="300" fill="#fef3c7"/>
  
  <!-- Dried shiitake mushrooms -->
  <ellipse cx="120" cy="200" rx="35" ry="12" fill="#451a03" opacity="0.3"/>
  <ellipse cx="120" cy="180" rx="40" ry="30" fill="url(#shiitake)"/>
  <ellipse cx="120" cy="175" rx="30" ry="20" fill="#78350f"/>
  
  <!-- Texture lines -->
  <path d="M95 175 Q120 170 145 175" stroke="#451a03" stroke-width="2" fill="none" opacity="0.6"/>
  <path d="M95 185 Q120 180 145 185" stroke="#451a03" stroke-width="2" fill="none" opacity="0.6"/>
  
  <ellipse cx="200" cy="220" rx="30" ry="10" fill="#451a03" opacity="0.3"/>
  <ellipse cx="200" cy="205" rx="35" ry="25" fill="url(#shiitake)"/>
  <ellipse cx="200" cy="200" rx="25" ry="15" fill="#78350f"/>
  
  <path d="M175 200 Q200 195 225 200" stroke="#451a03" stroke-width="2" fill="none" opacity="0.6"/>
  <path d="M175 210 Q200 205 225 210" stroke="#451a03" stroke-width="2" fill="none" opacity="0.6"/>
  
  <ellipse cx="280" cy="190" rx="32" ry="11" fill="#451a03" opacity="0.3"/>
  <ellipse cx="280" cy="175" rx="38" ry="28" fill="url(#shiitake)"/>
  <ellipse cx="280" cy="170" rx="28" ry="18" fill="#78350f"/>
  
  <path d="M252 170 Q280 165 308 170" stroke="#451a03" stroke-width="2" fill="none" opacity="0.6"/>
  <path d="M252 180 Q280 175 308 180" stroke="#451a03" stroke-width="2" fill="none" opacity="0.6"/>
  
  <!-- Label -->
  <rect x="150" y="20" width="100" height="30" rx="15" fill="#92400e"/>
  <text x="200" y="40" font-family="Arial, sans-serif" font-size="14" font-weight="bold" text-anchor="middle" fill="white">DRIED</text>
</svg>
