<svg xmlns="http://www.w3.org/2000/svg" width="400" height="300" viewBox="0 0 400 300">
  <defs>
    <radialGradient id="morel">
      <stop offset="0%" style="stop-color:#fef3c7;stop-opacity:1" />
      <stop offset="100%" style="stop-color:#92400e;stop-opacity:1" />
    </radialGradient>
    <linearGradient id="stem" x1="0%" y1="0%" x2="0%" y2="100%">
      <stop offset="0%" style="stop-color:#f9fafb;stop-opacity:1" />
      <stop offset="100%" style="stop-color:#d1d5db;stop-opacity:1" />
    </linearGradient>
  </defs>
  <rect width="400" height="300" fill="#fef3c7"/>
  
  <!-- Morel mushroom with honeycomb texture -->
  <g transform="translate(200, 180)">
    <!-- Stem -->
    <rect x="-8" y="40" width="16" height="40" fill="url(#stem)"/>
    
    <!-- Cap with honeycomb pattern -->
    <ellipse cx="0" cy="30" rx="35" ry="40" fill="url(#morel)"/>
    
    <!-- Honeycomb texture -->
    <ellipse cx="-10" cy="20" rx="8" ry="10" fill="#78350f" opacity="0.6"/>
    <ellipse cx="5" cy="15" rx="6" ry="8" fill="#78350f" opacity="0.6"/>
    <ellipse cx="12" cy="25" rx="7" ry="9" fill="#78350f" opacity="0.6"/>
    <ellipse cx="-8" cy="35" rx="5" ry="7" fill="#78350f" opacity="0.6"/>
    <ellipse cx="8" cy="38" rx="6" ry="8" fill="#78350f" opacity="0.6"/>
    <ellipse cx="-15" cy="30" rx="7" ry="9" fill="#78350f" opacity="0.6"/>
    <ellipse cx="15" cy="32" rx="5" ry="6" fill="#78350f" opacity="0.6"/>
    
    <!-- Inner hollow -->
    <ellipse cx="0" cy="25" rx="8" ry="15" fill="#fef3c7" opacity="0.8"/>
  </g>
  
  <!-- Small morels -->
  <g transform="translate(100, 200) scale(0.7)">
    <rect x="-6" y="30" width="12" height="30" fill="url(#stem)"/>
    <ellipse cx="0" cy="25" rx="25" ry="30" fill="url(#morel)"/>
    <ellipse cx="-7" cy="18" rx="5" ry="7" fill="#78350f" opacity="0.6"/>
    <ellipse cx="4" cy="15" rx="4" ry="6" fill="#78350f" opacity="0.6"/>
    <ellipse cx="6" cy="22" rx="4" ry="5" fill="#78350f" opacity="0.6"/>
    <ellipse cx="0" cy="20" rx="5" ry="8" fill="#fef3c7" opacity="0.8"/>
  </g>
  
  <g transform="translate(300, 190) scale(0.6)">
    <rect x="-5" y="25" width="10" height="25" fill="url(#stem)"/>
    <ellipse cx="0" cy="20" rx="20" ry="25" fill="url(#morel)"/>
    <ellipse cx="-5" cy="15" rx="3" ry="5" fill="#78350f" opacity="0.6"/>
    <ellipse cx="3" cy="12" rx="3" ry="4" fill="#78350f" opacity="0.6"/>
    <ellipse cx="0" cy="16" rx="3" ry="6" fill="#fef3c7" opacity="0.8"/>
  </g>
  
  <!-- Label -->
  <rect x="150" y="20" width="100" height="30" rx="15" fill="#92400e"/>
  <text x="200" y="40" font-family="Arial, sans-serif" font-size="14" font-weight="bold" text-anchor="middle" fill="white">MOREL</text>
</svg>
